<?xml version="1.0" encoding="utf-8"?>
<!-- Generator: Adobe Illustrator 14.0.0, SVG Export Plug-In  -->
<!DOCTYPE svg PUBLIC "-//W3C//DTD SVG 1.1//EN" "http://www.w3.org/Graphics/SVG/1.1/DTD/svg11.dtd" [
	<!ENTITY ns_flows "http://ns.adobe.com/Flows/1.0/">
]>
<svg version="1.1"
	 xmlns="http://www.w3.org/2000/svg" xmlns:xlink="http://www.w3.org/1999/xlink" xmlns:a="http://ns.adobe.com/AdobeSVGViewerExtensions/3.0/"
	 x="0px" y="0px" width="114px" height="18px" viewBox="-0.081 -0.567 114 18" style="enable-background:new -0.081 -0.567 114 18;"
	 xml:space="preserve">
<defs>
</defs>
<path style="fill:#1C61B5;" d="M0,16.37L0.504,0.192h3.12L3.121,7.465c-0.144,1.776-0.336,3.457-0.528,5.208h0.072
	c0.408-1.752,0.936-3.264,1.536-4.92l2.808-7.561h2.736L9.481,7.417c-0.072,1.728-0.216,3.432-0.384,5.256h0.048
	c0.432-1.752,0.912-3.432,1.392-5.041l2.352-7.44h2.953L10.081,16.37H6.913v-5.425c0.024-1.776,0.12-3.672,0.313-5.281H7.177
	c-0.552,1.608-1.128,3.504-2.088,5.665L3,16.37H0z"/>
<path style="fill:#1C61B5;" d="M22.489,9.217h-3.552l-0.888,4.489h4.081l-0.528,2.664h-7.057L17.64,0.192h6.769l-0.528,2.64h-3.72
	l-0.792,3.84h3.624L22.489,9.217z"/>
<path style="fill:#1C61B5;" d="M26.856,0.408c0.84-0.168,1.944-0.288,3.12-0.288c1.32,0,2.712,0.216,3.648,1.128
	c0.696,0.648,0.984,1.56,0.984,2.568c0,1.968-1.392,3.577-3.096,4.104v0.096c1.608,0.552,2.136,2.064,2.136,3.456
	c0,1.44-0.744,2.737-1.728,3.552c-1.152,0.937-2.784,1.416-5.064,1.416c-1.536,0-2.304-0.071-3-0.216L26.856,0.408z M27.096,14.042
	c0.216,0.047,0.48,0.047,0.744,0.047c1.729,0,2.856-1.224,2.856-2.904c0-1.368-0.696-2.256-2.064-2.256h-0.528L27.096,14.042z
	 M28.536,6.721h0.432c1.728,0,2.736-1.08,2.736-2.64c0-0.84-0.384-1.752-1.56-1.752c-0.288,0-0.6,0-0.816,0.072L28.536,6.721z"/>
<path style="fill:#1C61B5;" d="M35.375,13.297c0.528,0.312,1.368,0.552,2.232,0.552c1.368,0.048,2.328-0.792,2.328-2.064
	c0-1.08-0.6-1.704-1.608-2.712c-1.272-1.2-1.92-2.496-1.92-3.912c0-3,2.112-5.112,5.28-5.112c1.249,0,2.041,0.264,2.424,0.504
	l-0.816,2.592c-0.48-0.264-1.008-0.432-1.752-0.432c-1.272,0-2.136,0.816-2.161,2.064c0,0.768,0.312,1.368,1.608,2.52
	c1.32,1.176,1.944,2.592,1.944,3.888c0,3.361-2.232,5.329-5.305,5.329c-1.608,0-2.64-0.36-3.024-0.601L35.375,13.297z"/>
<path style="fill:#1C61B5;" d="M50.112,0.192L47.016,16.37h-3l3.096-16.178H50.112z"/>
<path style="fill:#1C61B5;" d="M53.88,3.024h-2.808l0.552-2.832h8.617l-0.553,2.832H56.88L54.336,16.37h-3L53.88,3.024z"/>
<path style="fill:#1C61B5;" d="M66.719,9.217h-3.552l-0.889,4.489h4.081l-0.528,2.664h-7.057l3.097-16.178h6.769l-0.528,2.64h-3.721
	l-0.792,3.84h3.625L66.719,9.217z"/>
<path style="fill:#1C61B5;" d="M74.568,0.192h3l-2.592,13.561h3.936l-0.504,2.617h-6.937L74.568,0.192z"/>
<path style="fill:#1C61B5;" d="M90.744,5.137c0,3.432-1.128,7.752-3.264,9.889c-1.009,1.009-2.16,1.536-3.576,1.536
	c-3.505,0-4.009-3.504-4.009-5.28c0-3.289,1.128-7.609,3.36-9.793C84.215,0.552,85.391,0,86.808,0
	C90.312,0,90.744,3.216,90.744,5.137z M85.32,3.145c-1.488,1.512-2.328,6.024-2.328,8.425c0,0.912,0.12,2.352,1.368,2.352
	c0.336,0,0.695-0.168,0.983-0.479c1.608-1.584,2.305-6.792,2.305-8.545c0-1.032-0.145-2.256-1.248-2.256
	C86.015,2.641,85.656,2.809,85.32,3.145z"/>
<path style="fill:#1C61B5;" d="M99.912,15.913c-0.888,0.336-1.944,0.601-3.192,0.601c-1.92,0-3.096-0.624-3.937-1.681
	c-0.792-0.983-1.199-2.568-1.199-4.032c0-3.336,1.104-6.457,3.048-8.521C96,0.84,97.896,0.048,99.888,0.048
	c1.344,0,2.088,0.24,2.567,0.432l-0.96,2.64c-0.384-0.168-1.08-0.336-1.752-0.336c-1.104,0-1.944,0.36-2.688,1.08
	c-1.319,1.32-2.304,3.888-2.304,6.888c0,2.017,0.647,3.168,1.944,3.168c0.336,0,0.6-0.023,0.864-0.096l0.743-4.008h-1.464
	l0.504-2.424h4.177L99.912,15.913z"/>
<path style="fill:#1C61B5;" d="M113.543,5.137c0,3.432-1.128,7.752-3.264,9.889c-1.009,1.009-2.16,1.536-3.576,1.536
	c-3.505,0-4.009-3.504-4.009-5.28c0-3.289,1.128-7.609,3.36-9.793C107.015,0.552,108.191,0,109.608,0
	C113.112,0,113.543,3.216,113.543,5.137z M108.12,3.145c-1.488,1.512-2.328,6.024-2.328,8.425c0,0.912,0.12,2.352,1.368,2.352
	c0.336,0,0.695-0.168,0.983-0.479c1.608-1.584,2.305-6.792,2.305-8.545c0-1.032-0.145-2.256-1.248-2.256
	C108.816,2.641,108.456,2.809,108.12,3.145z"/>
</svg>
